<?xml version="1.0" standalone="no"?>
<!DOCTYPE svg PUBLIC "-//W3C//DTD SVG 20010904//EN"
 "http://www.w3.org/TR/2001/REC-SVG-20010904/DTD/svg10.dtd">
<svg version="1.0" xmlns="http://www.w3.org/2000/svg"
 width="456.000000pt" height="456.000000pt" viewBox="0 0 456.000000 456.000000"
 preserveAspectRatio="xMidYMid meet">
<metadata>
Created by potrace 1.14, written by Peter Selinger 2001-2017
</metadata>
<g transform="translate(0.000000,456.000000) scale(0.100000,-0.100000)"
fill="#000000" stroke="none">
<path d="M2059 4531 c-24 -16 -98 -64 -164 -107 -66 -43 -131 -84 -145 -92
-14 -7 -32 -19 -40 -26 -8 -8 -19 -15 -25 -17 -9 -4 -62 -38 -302 -196 -48
-31 -91 -68 -103 -89 -22 -34 -22 -36 -4 -49 16 -12 17 -17 6 -34 -9 -16 -9
-25 -1 -39 10 -16 4 -29 -34 -83 -26 -35 -50 -69 -56 -75 -5 -6 -16 -24 -25
-40 -9 -16 -27 -46 -39 -66 -41 -69 -111 -193 -136 -240 -26 -51 -52 -66 -296
-178 -38 -17 -83 -39 -100 -47 -36 -19 -85 -63 -85 -77 0 -5 -7 -17 -15 -26
-28 -31 -101 -183 -130 -270 -16 -47 -37 -98 -47 -115 -36 -60 -14 -328 38
-468 28 -76 36 -156 18 -191 -15 -31 -15 -31 19 -61 44 -38 78 -115 124 -275
19 -69 11 -93 -62 -199 -83 -120 -106 -174 -107 -245 -1 -51 4 -69 28 -108 16
-25 42 -54 57 -63 36 -22 109 -24 132 -5 27 22 62 83 74 127 14 52 48 96 175
227 104 107 105 108 111 80 15 -71 72 -278 100 -359 49 -144 66 -241 66 -378
0 -93 -4 -125 -24 -185 -24 -72 -24 -72 -4 -66 12 4 30 18 42 32 60 75 95 126
115 166 24 52 30 54 48 26 18 -30 27 -24 28 18 1 21 7 48 13 60 l12 22 32 -23
c79 -59 204 -83 335 -66 88 11 89 11 115 -14 15 -13 27 -31 27 -38 -1 -30 -47
-93 -73 -100 -45 -12 -210 -99 -275 -145 -119 -86 -222 -208 -222 -264 0 -27
20 -49 117 -128 l52 -43 133 3 133 3 9 30 c14 47 70 165 78 165 5 0 8 6 8 13
0 15 81 102 141 150 45 36 69 46 69 29 0 -5 12 -14 28 -20 27 -12 27 -12 5 4
-44 31 -32 44 111 118 38 19 96 44 130 55 81 27 264 64 281 57 9 -3 15 -25 18
-58 l3 -53 2 63 2 62 173 0 c185 0 206 -5 243 -59 8 -11 28 -28 45 -36 19 -10
29 -23 29 -38 0 -17 14 -30 63 -55 72 -37 92 -51 100 -72 4 -12 6 -12 6 2 1
27 52 79 96 99 51 24 62 24 70 -1 10 -30 22 -15 17 20 -2 16 -2 30 2 30 5 0
85 -120 143 -215 32 -53 67 -138 86 -212 12 -46 27 -83 33 -83 15 0 2 71 -31
162 -26 72 -26 90 -2 70 24 -20 86 -42 91 -33 11 17 -56 126 -112 185 -32 32
-77 67 -102 77 -26 12 -64 41 -92 72 -50 57 -65 58 -50 5 9 -35 9 -35 -34 -46
-25 -7 -59 -28 -83 -50 l-41 -39 -42 24 c-24 14 -44 25 -44 26 -1 1 4 53 11
115 15 131 44 213 92 261 45 46 128 213 159 322 31 110 34 126 40 216 l7 93
-29 0 c-19 0 -25 -3 -16 -9 11 -6 11 -27 2 -112 -6 -57 -14 -108 -18 -114 -4
-5 -7 -14 -8 -20 -27 -147 -141 -385 -183 -385 -5 0 -11 69 -14 153 -4 105
-11 166 -22 197 -9 25 -20 85 -24 134 -6 81 -5 92 14 115 21 27 56 77 69 99 4
7 2 12 -7 12 -8 0 -31 -24 -50 -53 -20 -30 -54 -70 -76 -90 -23 -20 -37 -37
-32 -37 6 0 13 5 16 10 11 19 35 10 35 -12 0 -12 9 -58 20 -103 35 -144 50
-241 50 -318 0 -42 -4 -78 -9 -81 -5 -3 -22 1 -37 9 -24 13 -69 15 -259 13
-203 -2 -234 0 -262 15 -18 10 -33 15 -33 12 0 -3 21 -16 48 -29 92 -46 108
-56 150 -91 51 -44 53 -62 10 -69 -18 -2 19 -3 82 -1 63 2 127 8 143 14 31 12
149 32 155 27 2 -2 -3 -18 -12 -34 -26 -50 -162 -89 -272 -78 -161 16 -195 17
-269 7 -70 -9 -82 -8 -92 6 -7 9 -13 25 -13 36 0 21 12 21 183 1 34 -4 57 -3
57 3 0 5 -52 15 -115 21 -137 13 -164 28 -190 100 -15 41 -21 48 -39 45 -33
-7 -72 31 -86 82 -7 25 -10 48 -8 51 3 3 39 -4 79 -15 41 -11 86 -23 102 -26
15 -3 27 -10 27 -15 0 -6 -12 -10 -27 -11 -20 -1 -15 -4 17 -10 25 -5 50 -7
55 -5 6 3 0 5 -12 5 -13 1 -23 7 -23 16 0 12 21 14 118 14 128 0 155 5 228 46
90 49 90 50 76 165 -7 55 -24 148 -37 207 -14 60 -25 111 -25 115 0 3 14 11
30 17 17 5 34 11 38 13 4 2 10 -10 13 -27 7 -29 7 -29 8 -3 1 36 11 58 25 58
15 0 60 50 52 58 -3 3 -16 -4 -29 -15 -33 -31 -111 -70 -183 -92 l-64 -19 0
39 c0 21 -4 39 -10 39 -5 0 -10 -15 -10 -32 0 -18 -4 -38 -8 -45 -9 -14 -129
-32 -271 -40 -109 -6 -271 11 -271 29 0 5 16 31 36 56 20 26 26 36 13 22 -13
-14 -34 -39 -47 -55 l-23 -29 -67 23 c-37 13 -88 33 -114 44 -47 19 -48 20
-49 66 -2 41 -3 39 -9 -19 -8 -76 -36 -137 -82 -175 l-33 -28 -12 59 c-12 62
-42 136 -66 167 -12 14 -20 16 -41 7 -15 -5 -38 -10 -52 -10 -29 0 -32 28 -7
71 16 27 16 30 -3 56 -107 147 -113 465 -18 833 8 30 19 73 25 95 5 22 21 69
35 103 14 35 23 66 21 69 -3 2 -8 -6 -12 -19 -4 -13 -13 -36 -21 -53 -39 -88
-77 -224 -110 -395 -27 -142 -34 -387 -12 -447 13 -37 6 -52 -17 -33 -12 10
-19 10 -27 2 -7 -7 -44 -12 -89 -12 l-78 0 -11 58 c-6 31 -16 71 -22 87 -33
94 -56 225 -39 225 6 0 11 -14 11 -31 0 -62 124 -245 200 -294 14 -9 14 -8 0
5 -13 12 -101 119 -128 155 -4 6 -20 32 -36 59 -25 43 -28 55 -24 122 2 50 8
79 19 89 15 15 17 12 22 -36 4 -29 10 -55 15 -58 9 -7 37 -90 35 -108 0 -7 5
-13 13 -13 14 0 18 -15 16 -60 -1 -21 0 -22 6 -6 7 16 13 12 46 -33 21 -28 42
-51 48 -51 5 0 -4 18 -22 39 -49 62 -118 212 -135 291 -30 142 -9 390 39 472
l22 37 13 -34 c9 -27 18 -35 37 -35 13 0 24 3 24 8 0 4 19 28 43 53 23 26 80
90 127 144 47 53 97 111 113 128 15 17 27 34 27 38 0 16 -31 117 -60 199 -37
100 -60 180 -53 180 2 0 -3 7 -11 16 -9 8 -16 22 -16 31 0 8 -6 29 -14 46 -7
18 -27 75 -44 127 -16 52 -34 96 -38 97 -5 2 -51 -38 -103 -87 -87 -84 -93
-91 -76 -104 17 -12 25 -7 78 46 33 33 66 58 75 56 10 -2 28 -42 54 -123 l39
-120 -33 -27 c-38 -32 -47 -34 -62 -13 -8 12 -10 -3 -8 -60 3 -64 0 -83 -22
-129 -14 -30 -42 -71 -61 -92 -19 -20 -35 -47 -35 -60 0 -13 -8 -45 -19 -71
-25 -63 -36 -117 -23 -109 14 9 29 -14 37 -56 l7 -36 -44 -7 c-31 -5 -46 -13
-54 -28 -6 -12 -50 -101 -99 -197 -136 -269 -146 -290 -138 -290 5 0 3 -4 -4
-8 -6 -4 -30 -45 -53 -92 l-42 -85 6 200 c3 110 8 304 10 430 3 192 3 207 -4
90 -4 -77 -13 -207 -19 -290 -6 -82 -11 -234 -11 -337 0 -105 -4 -188 -9 -188
-22 0 -161 170 -161 197 0 4 -6 14 -14 22 -7 9 -25 57 -40 106 -23 80 -26 107
-26 248 0 143 3 168 31 274 16 65 34 120 38 123 5 3 14 22 20 43 7 20 17 37
23 37 6 0 7 7 4 16 -3 8 -2 13 3 10 4 -3 21 19 36 50 15 30 31 57 36 59 4 3
13 22 20 43 6 20 19 46 29 57 9 11 43 69 75 130 32 60 65 121 73 135 31 50 80
127 141 220 34 52 57 96 51 98 -17 6 -11 38 10 57 11 10 17 22 14 27 -4 6 2 7
16 3 16 -5 32 1 63 27 23 18 53 34 67 34 14 1 34 5 45 9 38 15 403 169 460
195 22 9 69 30 105 45 76 32 120 50 175 75 22 10 94 41 160 69 66 29 129 56
140 61 34 15 159 67 175 73 8 3 -1 6 -21 6 -35 1 -65 -9 -154 -48 -22 -10 -56
-25 -75 -34 -40 -17 -141 -62 -185 -82 -29 -12 -307 -133 -370 -160 -16 -7
-56 -25 -87 -39 -31 -14 -59 -26 -62 -26 -3 0 -34 -13 -68 -30 -63 -31 -93
-34 -41 -5 15 8 40 23 55 33 15 9 67 41 115 71 48 30 124 77 168 106 44 28 94
60 112 71 18 10 76 46 130 79 l97 60 -58 3 c-42 2 -65 -2 -87 -15 -16 -10 -85
-54 -154 -98 -161 -103 -186 -119 -292 -185 -48 -30 -93 -59 -100 -65 -6 -5
-48 -32 -93 -60 -45 -27 -104 -65 -132 -82 -27 -18 -55 -33 -62 -33 -6 0 -22
-7 -34 -16 -39 -27 -39 -4 -1 29 20 18 141 97 268 177 127 80 250 157 274 172
23 15 49 31 57 35 8 5 38 23 65 40 168 107 162 102 134 103 -14 0 -45 -13 -70
-29z m-360 -1246 c28 -85 51 -160 51 -167 0 -7 -30 -47 -67 -89 -127 -142
-178 -202 -181 -210 -9 -22 -23 -5 -37 46 -15 51 -13 95 4 95 4 0 16 7 27 15
16 13 14 13 -15 0 -38 -19 -53 -11 -52 26 1 46 4 59 17 59 7 0 14 3 16 8 2 4
22 22 46 40 23 19 42 38 42 42 0 5 11 26 25 46 29 43 33 96 10 151 -12 29 -13
39 -3 52 21 25 52 50 60 45 3 -2 29 -74 57 -159z m-1109 -160 c0 -3 -20 -48
-45 -99 -25 -52 -45 -99 -45 -104 0 -5 -6 -15 -14 -21 -8 -7 -17 -24 -21 -38
-6 -26 -74 -117 -82 -110 -13 13 103 261 158 337 25 35 49 52 49 35z m781
-390 c-30 -68 -53 -210 -49 -304 2 -44 0 -81 -3 -81 -8 0 -35 -62 -31 -72 7
-22 -9 -3 -24 28 -22 46 -31 142 -22 217 12 89 27 106 28 30 0 -95 16 -84 24
17 8 106 22 151 62 197 36 41 42 29 15 -32z m-1018 -157 c14 -148 46 -326 67
-372 19 -42 20 -50 8 -63 -20 -19 -30 -5 -56 77 -48 150 -75 367 -51 411 16
31 26 15 32 -53z m871 -233 c16 -100 36 -197 75 -355 61 -247 95 -442 107
-621 8 -129 -2 -164 -57 -210 -23 -19 -46 -39 -52 -44 -7 -6 -32 -25 -56 -43
l-45 -32 2 -107 c2 -89 -2 -123 -22 -193 -29 -103 -50 -152 -70 -170 -19 -15
-19 -17 -1 44 34 112 10 305 -66 541 -21 66 -39 126 -39 134 0 8 17 35 38 60
88 105 152 212 209 351 19 47 39 89 44 94 15 17 10 34 -8 29 -19 -5 -88 -87
-112 -132 -7 -14 -30 -46 -50 -71 -20 -24 -35 -48 -34 -52 2 -5 -4 -8 -12 -8
-9 0 -12 6 -9 18 3 9 -2 6 -10 -8 l-15 -25 -2 25 c-1 23 -2 23 -8 -5 -7 -29
-7 -29 -15 -7 -4 12 -12 20 -17 17 -5 -4 -9 1 -9 9 0 9 -4 16 -10 16 -18 0
-29 74 -21 145 9 71 96 351 131 421 11 21 20 44 20 50 0 6 7 25 15 40 8 16 15
37 15 46 0 9 5 29 12 45 6 15 12 33 13 39 4 15 37 66 41 62 1 -2 9 -48 18
-103z m-777 -359 c14 -4 20 -12 16 -22 -3 -10 0 -12 10 -9 8 4 17 -1 21 -12 6
-15 9 -15 17 -3 8 12 9 10 4 -6 -6 -24 16 -39 32 -23 6 6 10 5 10 -4 0 -19
-46 -16 -52 3 -5 16 -47 42 -70 45 -5 0 -9 7 -7 14 1 7 -2 10 -8 6 -18 -11
-32 5 -19 21 7 8 15 11 18 6 3 -5 16 -12 28 -16z m1204 -446 c44 -24 8 -75
-49 -68 -19 2 -28 9 -30 26 -7 44 34 66 79 42z m385 -65 c31 -14 93 -32 138
-41 44 -9 82 -18 84 -19 2 -2 -10 -45 -27 -96 -16 -52 -37 -122 -47 -156 l-17
-62 24 -29 c13 -16 41 -40 62 -53 20 -13 37 -30 37 -39 0 -8 10 -38 21 -66 21
-50 58 -84 93 -84 16 0 81 -125 92 -177 7 -33 6 -34 -151 -67 -72 -15 -82 -19
-220 -86 -43 -22 -80 -38 -81 -37 -1 1 3 38 8 82 5 44 6 116 3 160 -11 131 -8
179 16 219 19 32 21 47 15 105 -8 90 -47 206 -103 310 -43 80 -44 87 -34 123
7 21 16 38 21 38 5 0 35 -11 66 -25z m-7 -632 c0 -16 4 -66 11 -112 18 -132 5
-168 -87 -259 -75 -73 -166 -131 -178 -112 -12 20 26 203 56 266 36 75 88 153
138 205 43 46 62 49 60 12z m-116 -55 c-5 -7 -19 -30 -32 -50 -12 -21 -25 -38
-28 -38 -3 0 -16 11 -29 25 l-23 25 22 12 c24 14 77 36 90 37 4 1 4 -5 0 -11z
m112 -310 c-5 -26 -17 -40 -53 -63 -26 -16 -101 -84 -167 -151 -130 -131 -165
-154 -304 -198 l-84 -27 -39 27 c-21 15 -38 30 -38 35 0 4 20 7 43 7 93 0 168
33 288 126 43 34 111 81 150 106 39 25 101 75 138 111 36 37 67 66 69 64 2 -2
0 -18 -3 -37z m1537 -63 c59 -43 170 -191 130 -173 -4 2 -28 11 -55 22 -40 16
-55 30 -97 94 -27 41 -50 79 -50 83 0 17 26 8 72 -26z"/>
<path d="M1546 3025 c-15 -14 -23 -25 -17 -25 14 0 68 49 55 50 -6 0 -23 -11
-38 -25z"/>
<path d="M2930 4550 c-8 -5 -64 -30 -125 -56 -60 -25 -123 -52 -140 -59 -16
-7 -84 -37 -150 -65 -66 -28 -129 -55 -140 -60 -11 -5 -94 -41 -185 -80 -91
-39 -178 -77 -195 -85 -16 -8 -59 -26 -95 -41 -36 -14 -85 -35 -110 -46 -25
-11 -58 -26 -75 -33 -16 -7 -56 -25 -87 -39 -61 -28 -78 -32 -78 -16 0 5 15
16 34 24 19 8 52 26 73 41 30 21 33 25 13 20 -14 -4 -35 -13 -47 -21 -11 -7
-42 -18 -67 -25 -49 -12 -55 -19 -31 -39 8 -7 15 -17 15 -22 0 -5 24 -41 53
-81 88 -119 197 -289 197 -307 0 -9 -17 -26 -37 -39 -47 -28 -28 -23 117 30
l115 42 175 1 c152 1 180 -1 203 -16 34 -23 75 -25 57 -3 -6 8 -38 17 -71 21
-32 4 -56 10 -53 15 7 13 161 11 207 -2 33 -9 37 -13 31 -32 -6 -20 -4 -19 15
5 11 14 21 30 21 35 0 12 88 95 125 118 16 10 70 33 120 51 95 35 93 44 -5 19
-81 -21 -146 -60 -211 -126 l-56 -57 -54 10 c-30 6 -90 8 -134 5 -195 -14
-394 -37 -445 -52 -102 -30 -99 -30 -113 1 -6 16 -21 43 -31 59 -37 58 -71
110 -79 120 -4 6 -21 28 -38 50 -16 22 -35 47 -42 55 -35 44 -45 68 -34 79 6
6 16 11 23 11 10 0 34 10 159 65 17 8 66 28 110 45 43 18 86 36 94 41 9 4 45
20 81 35 36 14 83 34 105 44 22 10 51 21 65 25 14 4 30 11 35 15 6 4 46 22 90
39 44 18 93 38 110 46 16 8 59 26 95 40 36 15 79 33 95 40 31 14 178 76 295
125 36 15 72 30 80 33 8 3 -3 6 -25 6 -22 0 -47 -4 -55 -9z"/>
<path d="M2944 3821 c3 -4 34 -10 68 -13 110 -9 214 -80 273 -186 24 -43 48
-161 28 -137 -19 23 -92 63 -152 83 -78 27 -229 30 -334 7 -93 -19 -194 -69
-239 -116 -41 -44 -45 -46 -51 -21 -2 9 -4 0 -3 -20 1 -31 5 -38 21 -37 11 0
29 5 40 10 19 9 18 9 -2 5 -62 -11 16 94 82 113 32 9 162 -5 180 -18 5 -5 28
-14 50 -21 61 -19 114 -54 185 -121 59 -54 62 -60 35 -53 -70 16 -112 23 -135
22 -14 0 7 -6 45 -13 150 -28 249 -120 490 -456 87 -122 162 -211 213 -254 18
-15 30 -31 26 -36 -8 -13 -173 1 -211 18 -24 11 -36 27 -49 64 -10 27 -19 47
-21 46 -1 -2 4 -41 13 -87 18 -94 15 -251 -4 -258 -8 -2 -7 -8 3 -18 10 -10
12 -21 6 -32 -10 -20 -3 -45 10 -36 16 10 10 -55 -12 -123 -35 -106 -72 -163
-149 -224 -41 -33 -179 -104 -186 -96 -2 2 7 23 19 48 19 39 22 58 19 154 -1
61 -8 137 -16 170 -8 33 -22 91 -31 130 -8 38 -21 74 -27 80 -8 7 -9 4 -3 -10
7 -18 30 -112 55 -220 5 -22 9 -73 10 -114 0 -67 -3 -79 -35 -131 -29 -47 -65
-129 -65 -146 0 -2 5 -4 10 -4 6 0 10 7 10 15 0 20 56 131 71 141 8 4 9 -3 4
-27 -4 -19 -10 -36 -14 -39 -4 -3 -13 -18 -21 -35 -8 -16 -16 -33 -18 -37 -7
-14 34 -8 54 7 26 19 42 19 47 -2 3 -11 5 -7 6 10 1 22 9 32 39 45 20 10 50
26 65 36 15 10 29 17 31 15 9 -13 27 -124 37 -238 10 -102 16 -131 27 -131 12
0 13 14 8 83 -4 45 -14 126 -23 179 -17 107 -14 131 20 168 38 42 73 114 92
190 15 60 17 101 13 237 l-5 164 22 -5 c55 -14 157 -24 194 -19 64 9 69 25 19
64 -72 56 -160 160 -274 325 -106 154 -114 181 -74 274 33 77 59 132 73 153
10 15 7 22 -18 44 -16 14 -48 40 -70 59 -21 19 -42 34 -46 34 -4 0 -19 35 -35
78 -45 125 -123 209 -235 251 -53 21 -165 29 -155 12z m30 -259 c2 -4 -4 -27
-14 -50 l-19 -43 -33 17 c-18 9 -46 27 -61 40 l-28 23 23 5 c62 14 126 18 132
8z m186 -13 c57 -14 98 -45 121 -91 28 -54 79 -222 79 -259 0 -34 -9 -59 -21
-59 -5 0 -65 55 -132 123 -68 67 -142 135 -165 152 -24 16 -40 35 -38 41 3 7
8 29 12 49 11 63 39 71 144 44z m-345 -20 l30 -20 -35 6 c-41 9 -50 13 -50 26
0 15 23 10 55 -12z m586 -131 c21 -17 39 -39 39 -48 0 -22 -50 -133 -57 -127
-10 11 -42 178 -37 192 8 20 9 20 55 -17z"/>
<path d="M2295 3550 c-18 -8 -17 -9 7 -9 15 -1 30 4 33 9 7 12 -12 12 -40 0z"/>
<path d="M2483 3473 c9 -2 25 -2 35 0 9 3 1 5 -18 5 -19 0 -27 -2 -17 -5z"/>
<path d="M2278 3463 c17 -2 47 -2 65 0 17 2 3 4 -33 4 -36 0 -50 -2 -32 -4z"/>
<path d="M2145 3430 c-13 -6 -15 -9 -5 -9 8 0 22 4 30 9 18 12 2 12 -25 0z"/>
<path d="M2710 3409 c79 -14 98 -23 154 -71 52 -46 98 -105 132 -169 19 -39
61 -164 67 -204 l4 -30 2 31 c1 35 -38 164 -67 218 -35 64 -104 151 -146 182
-50 38 -96 54 -150 53 l-41 -1 45 -9z"/>
<path d="M1990 3350 c-9 -6 -10 -10 -3 -10 6 0 15 5 18 10 8 12 4 12 -15 0z"/>
<path d="M1434 3324 c-108 -73 -264 -229 -320 -320 -26 -43 -32 -69 -9 -39
133 177 191 236 328 330 32 22 61 43 63 47 11 17 -25 7 -62 -18z"/>
<path d="M2439 3293 c-13 -21 -36 -65 -50 -98 -29 -65 -47 -131 -29 -105 5 8
10 21 10 28 0 7 22 58 50 112 27 55 48 100 47 100 -2 0 -14 -17 -28 -37z"/>
<path d="M1009 3050 c-7 -35 -4 -48 7 -38 3 4 4 21 2 40 l-3 33 -6 -35z"/>
<path d="M2331 3044 c0 -11 3 -14 6 -6 3 7 2 16 -1 19 -3 4 -6 -2 -5 -13z"/>
<path d="M2322 3000 c0 -14 2 -19 5 -12 2 6 2 18 0 25 -3 6 -5 1 -5 -13z"/>
<path d="M3073 2895 c0 -22 2 -30 4 -17 2 12 2 30 0 40 -3 9 -5 -1 -4 -23z"/>
<path d="M1292 2879 c-24 -12 -41 -24 -38 -27 3 -3 12 0 19 7 8 6 32 17 53 25
21 8 32 15 24 15 -8 1 -34 -9 -58 -20z"/>
<path d="M1740 2849 c-7 -11 -10 -23 -7 -25 2 -2 9 7 15 21 14 30 7 33 -8 4z"/>
<path d="M1170 2830 c0 -5 7 -7 15 -4 8 4 15 8 15 10 0 2 -7 4 -15 4 -8 0 -15
-4 -15 -10z"/>
<path d="M1120 2820 l-25 -7 27 -8 c35 -9 55 -3 37 11 -8 6 -25 8 -39 4z"/>
<path d="M2361 2775 c-8 -22 -19 -47 -25 -55 -10 -13 -9 -13 7 0 17 13 21 12
39 -10 l19 -25 -7 25 c-4 14 -10 43 -14 65 l-6 40 -13 -40z"/>
<path d="M3067 2656 c-4 -26 -13 -62 -21 -79 -21 -48 -37 -100 -31 -105 2 -3
10 16 17 42 7 25 16 46 20 46 4 0 8 7 8 15 0 8 7 15 15 15 16 0 20 58 6 95 -6
14 -9 8 -14 -29z"/>
<path d="M2401 2644 c0 -11 3 -14 6 -6 3 7 2 16 -1 19 -3 4 -6 -2 -5 -13z"/>
<path d="M2285 2639 c-4 -6 -5 -12 -2 -15 2 -3 7 2 10 11 7 17 1 20 -8 4z"/>
<path d="M3102 2490 c0 -14 4 -38 8 -55 7 -27 8 -27 8 -5 0 14 -4 39 -8 55 -7
27 -8 27 -8 5z"/>
<path d="M2981 2429 c-6 -18 -9 -34 -7 -36 2 -2 9 10 15 28 6 18 9 34 7 36 -2
2 -9 -10 -15 -28z"/>
<path d="M2115 2429 c-4 -6 -5 -12 -2 -15 2 -3 7 2 10 11 7 17 1 20 -8 4z"/>
<path d="M2053 2348 c-22 -26 -37 -48 -30 -48 3 0 17 16 31 35 30 39 30 46 -1
13z"/>
<path d="M2420 2300 c-14 -4 -50 -9 -80 -10 -53 -2 -54 -2 -20 -11 47 -11 140
3 140 22 0 10 -5 10 -40 -1z"/>
<path d="M1990 2270 c-6 -12 -19 -29 -28 -39 -9 -10 -24 -28 -32 -40 -8 -13
-33 -48 -55 -79 -47 -66 -104 -173 -135 -252 -24 -63 -41 -140 -30 -140 4 0
12 19 19 43 17 62 73 177 86 177 7 0 17 -11 23 -25 6 -14 16 -25 22 -25 6 0 5
11 -4 28 -8 15 -17 44 -21 65 -6 33 -2 44 36 102 24 36 48 65 52 65 5 0 22
-14 39 -30 27 -27 201 -146 286 -195 17 -11 32 -22 32 -26 0 -3 -17 -13 -37
-22 -140 -59 -169 -73 -180 -87 -32 -40 -5 -42 126 -8 125 31 170 50 196 78
16 18 16 21 -3 53 -12 19 -56 55 -104 86 -46 29 -131 84 -191 122 -59 38 -112
69 -117 69 -17 0 -11 20 16 56 15 19 24 37 21 40 -3 3 -11 -4 -17 -16z"/>
<path d="M2887 2273 c-4 -3 -7 -10 -7 -14 0 -9 103 -59 121 -59 22 0 -3 17
-43 30 -21 6 -44 20 -51 31 -8 10 -17 16 -20 12z"/>
<path d="M1333 2175 c0 -22 2 -30 4 -17 2 12 2 30 0 40 -3 9 -5 -1 -4 -23z"/>
<path d="M2611 2163 l-13 -28 21 22 c23 24 26 33 13 33 -5 0 -14 -12 -21 -27z"/>
<path d="M3084 2051 c-31 -19 -144 -81 -194 -107 -14 -7 -40 -27 -57 -43 -30
-27 -32 -31 -19 -55 7 -14 44 -56 82 -93 63 -63 69 -66 72 -44 2 13 0 26 -5
30 -4 3 -27 34 -51 69 l-44 62 49 22 c54 23 173 100 196 126 8 9 12 25 8 34
-6 17 -8 17 -37 -1z"/>
<path d="M2610 2019 c0 -11 4 -18 10 -14 5 3 7 12 3 20 -7 21 -13 19 -13 -6z"/>
<path d="M2410 1989 c0 -5 5 -7 10 -4 6 3 10 8 10 11 0 2 -4 4 -10 4 -5 0 -10
-5 -10 -11z"/>
<path d="M3230 1736 c0 -9 5 -16 10 -16 6 0 10 4 10 9 0 6 -4 13 -10 16 -5 3
-10 -1 -10 -9z"/>
<path d="M2603 1618 c16 -10 85 -10 90 0 3 4 -19 7 -48 7 -29 0 -48 -3 -42 -7z"/>
<path d="M2407 1579 c7 -7 15 -10 18 -7 3 3 -2 9 -12 12 -14 6 -15 5 -6 -5z"/>
<path d="M2750 1576 c0 -8 4 -17 9 -20 5 -4 7 3 4 14 -6 23 -13 26 -13 6z"/>
<path d="M2978 1438 c-16 -5 -28 -14 -28 -19 0 -13 14 -11 29 4 11 10 12 0 6
-56 l-7 -68 31 16 c17 8 31 21 31 28 0 8 -3 9 -8 1 -4 -6 -15 -13 -24 -17 -22
-8 -23 7 -3 63 23 65 22 67 -27 48z"/>
<path d="M2445 899 c-4 -6 -5 -12 -2 -15 2 -3 7 2 10 11 7 17 1 20 -8 4z"/>
<path d="M3061 439 c-1 -9 7 -23 17 -30 15 -12 16 -12 6 1 -6 8 -14 22 -17 30
-5 13 -6 12 -6 -1z"/>
<path d="M2796 404 c-55 -54 37 -274 115 -274 10 0 32 15 48 32 24 26 33 30
43 20 16 -16 28 -15 28 3 0 9 -10 20 -23 26 -14 6 -36 40 -60 89 -31 67 -43
83 -77 100 -47 24 -54 25 -74 4z"/>
<path d="M3127 355 c15 -19 32 -35 37 -35 6 0 -5 16 -24 35 -43 45 -49 45 -13
0z"/>
<path d="M3274 268 c-14 -17 -15 -20 -2 -9 9 7 21 10 27 7 5 -3 11 1 15 9 8
23 -18 18 -40 -7z"/>
<path d="M3217 250 c3 -11 9 -17 15 -14 5 3 4 12 -3 20 -16 19 -18 18 -12 -6z"/>
<path d="M3403 165 c0 -27 2 -38 4 -22 2 15 2 37 0 50 -2 12 -4 0 -4 -28z"/>
<path d="M2017 189 c-29 -17 -47 -65 -47 -129 l0 -60 75 0 75 0 0 55 c0 61
-18 105 -52 129 -26 19 -27 19 -51 5z"/>
<path d="M3392 80 c0 -19 2 -27 5 -17 2 9 2 25 0 35 -3 9 -5 1 -5 -18z"/>
<path d="M3105 89 c-4 -6 -5 -12 -2 -15 2 -3 7 2 10 11 7 17 1 20 -8 4z"/>
</g>
</svg>
